# This file uses centimeters as units for non-parametric coordinates.

mtllib Wall_LP.mtl
g default
v -1.000000 0.000000 0.000000
v -0.500000 0.000000 0.000000
v 0.000000 0.000000 0.000000
v -1.000000 1.000000 0.000000
v -0.500000 1.000000 0.000000
v 0.000000 0.500000 -0.000000
v -1.000000 1.000000 -2.998622
v -0.500000 1.000000 -3.000000
v 0.000000 0.499999 -3.001378
v -1.000000 0.000000 -2.998623
v -0.500000 0.000000 -3.000000
v 0.000000 0.000000 -3.001378
vt 0.711963 0.154217
vt 0.788792 0.154217
vt 0.788792 0.307864
vt 0.711963 0.307864
vt 0.865634 0.154217
vt 0.865634 0.231071
vt 0.325981 0.069790
vt 0.384973 0.069562
vt 0.468402 0.069239
vt 0.149002 0.070476
vt 0.207995 0.070247
vt 0.090009 0.070704
vt 0.527395 0.069010
vt 0.694167 0.297029
vt 0.386326 0.361588
vt 0.470235 0.358234
vt 0.208982 0.360923
vt 0.623154 0.159012
vt 0.553744 0.159813
vt 0.528713 0.358678
vt 0.692564 0.158210
vt 0.326968 0.359308
vt 0.091327 0.361502
vt 0.554546 0.229223
vt 0.150131 0.351526
vt 0.624757 0.297831
vn -0.000000 -0.000000 1.000000
vn -0.000000 -0.000000 1.000000
vn -0.000000 -0.000000 1.000000
vn -0.000000 -0.000000 1.000000
vn 0.000000 -0.000000 1.000000
vn 0.000000 -0.000000 1.000000
vn 0.000000 1.000000 0.000000
vn 0.447296 0.894386 -0.000000
vn 0.447832 0.894118 -0.000000
vn 0.000000 1.000000 0.000000
vn 0.707107 0.707107 -0.000000
vn 0.707107 0.707107 -0.000000
vn 1.000000 0.000000 0.000000
vn 1.000000 0.000000 0.000000
vn 1.000000 0.000000 0.000000
vn 1.000000 0.000000 0.000000
vn 0.000000 -1.000000 0.000000
vn 0.000000 -1.000000 0.000000
vn 0.000000 -1.000000 0.000000
vn 0.000000 -1.000000 0.000000
vn 0.000000 -1.000000 0.000000
vn 0.000000 -1.000000 0.000000
vn -1.000000 0.000000 0.000000
vn -1.000000 0.000000 0.000000
vn -1.000000 0.000000 0.000000
vn -1.000000 0.000000 0.000000
vn -0.002755 0.000000 -0.999996
vn -0.002755 0.000000 -0.999996
vn -0.002755 0.000000 -0.999996
vn -0.002755 0.000000 -0.999996
vn -0.002755 0.000000 -0.999996
vn -0.002755 0.000000 -0.999996
s 1
g Wall_LP
usemtl initialShadingGroup
f 1/1/1 2/2/2 5/3/3 4/4/4
f 2/2/2 3/5/5 6/6/6 5/3/3
s 2
f 4/7/7 5/8/8 8/15/9 7/22/10
f 5/8/8 6/9/11 9/16/12 8/15/9
s off
f 3/13/13 12/20/14 9/16/15 6/9/16
s 3
f 10/17/17 11/25/18 2/10/19 1/11/20
f 11/25/18 12/23/21 3/12/22 2/10/19
s off
f 7/22/23 10/17/24 1/11/25 4/7/26
f 7/14/27 8/26/28 9/24/29 12/19/30 11/18/31 10/21/32
